<svg height="512pt" viewBox="0 0 512 512" width="512pt" xmlns="http://www.w3.org/2000/svg" xmlns:xlink="http://www.w3.org/1999/xlink"><linearGradient id="a" gradientUnits="userSpaceOnUse" x1="256" x2="256" y1="0" y2="512"><stop offset="0" stop-color="#2af598"/><stop offset="1" stop-color="#009efd"/></linearGradient><path d="m89 60c0-11.027344 8.972656-20 20-20h174.890625v71.109375c0 33.085937 26.914063 60 60 60h71v118.890625h40v-147.144531l-142.132813-142.855469h-203.757812c-33.085938 0-60 26.914062-60 60v230h40zm234.890625 51.109375v-43.210937l62.886719 63.210937h-42.886719c-11.03125 0-20-8.96875-20-20zm-229.890625 218.890625h40v115c0 36.945312-30.054688 67-67 67s-67-30.054688-67-67h40c0 14.886719 12.113281 27 27 27s27-12.113281 27-27zm159.5 0h-77.5v182h40v-71h37.5c30.601562 0 55.5-24.898438 55.5-55.5s-24.898438-55.5-55.5-55.5zm0 71h-37.5v-31h37.5c8.546875 0 15.5 6.953125 15.5 15.5s-6.953125 15.5-15.5 15.5zm258.5 0v20c0 50.054688-40.707031 90.800781-90.816406 91h-.367188c-50.109375-.199219-90.816406-40.945312-90.816406-91 0-50.179688 40.796875-91 90.945312-91 12.867188 0 25.320313 2.644531 37.007813 7.859375l-16.296875 36.527344c-6.527344-2.910157-13.496094-4.386719-20.710938-4.386719-28.089843 0-50.945312 22.878906-50.945312 51 0 28.0625 22.859375 50.902344 51 51 21.023438-.074219 39.101562-12.84375 46.898438-31h-42.898438v-40zm0 0" fill="url(#a)"/></svg>