<svg height="512pt" viewBox="-27 0 511 512" width="512pt" xmlns="http://www.w3.org/2000/svg" xmlns:xlink="http://www.w3.org/1999/xlink"><linearGradient id="a" gradientUnits="userSpaceOnUse" x1=".4996989986" x2="457.4987849986" y1="256.0001879986" y2="256.0001879986"><stop offset="0" stop-color="#00f2fe"/><stop offset=".0208" stop-color="#03effe"/><stop offset=".2931" stop-color="#24d2fe"/><stop offset=".5538" stop-color="#3cbdfe"/><stop offset=".7956" stop-color="#4ab0fe"/><stop offset="1" stop-color="#4facfe"/></linearGradient><path d="m63.5 330h-43c-11.046875 0-20 8.953125-20 20v142c0 11.046875 8.953125 20 20 20s20-8.953125 20-20v-30h23c33.082031 0 60-26.917969 60-60v-12c0-33.085938-26.917969-60-60-60zm20 72c0 11.027344-8.972656 20-20 20h-23v-52h23c11.027344 0 20 8.972656 20 20zm199-52v142c0 8.878906-5.855469 16.695312-14.378906 19.191406-1.859375.546875-3.75.808594-5.621094.808594-6.6875 0-13.09375-3.367188-16.839844-9.210938l-54.160156-84.515624v73.726562c0 11.046875-8.953125 20-20 20s-20-8.953125-20-20v-142c0-8.878906 5.855469-16.699219 14.378906-19.195312 8.519532-2.496094 17.667969.925781 22.460938 8.402343l54.160156 84.515625v-73.722656c0-11.046875 8.953125-20 20-20s20 8.953125 20 20zm99.140625-226.574219-77.566406-77.566406c-3.777344-3.777344-8.800781-5.859375-14.144531-5.859375h-188.316407c-22.058593 0-40 17.945312-40 40v190c0 11.046875-8.957031 20-20 20-11.046875 0-20-8.953125-20-20v-190c0-44.113281 35.886719-80 80-80h188.316407c16.027343 0 31.09375 6.242188 42.425781 17.574219l77.570312 77.566406c11.332031 11.335937 17.574219 26.402344 17.574219 42.425781v132.433594c0 11.046875-8.953125 20-20 20s-20-8.953125-20-20v-132.433594c0-5.339844-2.082031-10.363281-5.859375-14.140625zm75.859375 307.574219v19c0 1.308594-.128906 2.617188-.386719 3.898438-3.210937 16.148437-12.039062 30.742187-24.867187 41.097656-12.777344 10.320312-29.023438 16.003906-45.746094 16.003906-39.703125 0-72-32.300781-72-72v-38c0-39.703125 32.296875-72 72-72 25.339844 0 48.34375 12.933594 61.53125 34.597656 5.746094 9.4375 2.75 21.742188-6.683594 27.484375-9.433594 5.746094-21.738281 2.75-27.484375-6.683593-5.867187-9.640626-16.097656-15.398438-27.363281-15.398438-17.644531 0-32 14.355469-32 32v38c0 17.644531 14.355469 32 32 32 13.761719 0 25.445312-8.007812 29.980469-20h-13.980469c-11.046875 0-20-8.953125-20-20s8.953125-20 20-20h35c11.046875 0 20 8.953125 20 20zm0 0" fill="url(#a)"/></svg>